# Wavefront OBJ file automatically generated by Tiled2Unity

# Vertices (Count = 72)
v 0 -64 0
v -32 -64 0
v -32 -32 0
v 0 -32 0
v -64 -64 0
v -64 -32 0
v -96 -64 0
v -96 -32 0
v -128 -64 0
v -128 -32 0
v -160 -64 0
v -160 -32 0
v -192 -64 0
v -192 -32 0
v -224 -64 0
v -224 -32 0
v -256 -64 0
v -256 -32 0
v 0 -96 0
v -32 -96 0
v -64 -96 0
v -96 -96 0
v -128 -96 0
v -160 -96 0
v -192 -96 0
v -224 -96 0
v -256 -96 0
v 0 -128 0
v -32 -128 0
v -64 -128 0
v -96 -128 0
v -128 -128 0
v -160 -128 0
v -192 -128 0
v -224 -128 0
v -256 -128 0
v 0 -160 0
v -32 -160 0
v -64 -160 0
v -96 -160 0
v -128 -160 0
v -160 -160 0
v -192 -160 0
v -224 -160 0
v -256 -160 0
v 0 -192 0
v -32 -192 0
v -64 -192 0
v -96 -192 0
v -128 -192 0
v -160 -192 0
v -192 -192 0
v -224 -192 0
v -256 -192 0
v 0 -224 0
v -32 -224 0
v -64 -224 0
v -96 -224 0
v -128 -224 0
v -160 -224 0
v -192 -224 0
v -224 -224 0
v -256 -224 0
v 0 -256 0
v -32 -256 0
v -64 -256 0
v -96 -256 0
v -128 -256 0
v -160 -256 0
v -192 -256 0
v -224 -256 0
v -256 -256 0

# Texture Coorindates (Count = 20)
vt 0.1876221 0.6667888
vt 0.2498779 0.6667888
vt 0.2498779 0.7498779
vt 0.1876221 0.7498779
vt 0.0001220703 0.9167888
vt 0.06237793 0.9167888
vt 0.06237793 0.9998779
vt 0.0001220703 0.9998779
vt 0.3126221 0.5626221
vt 0.3748779 0.5626221
vt 0.3748779 0.6248779
vt 0.3126221 0.6248779
vt 0.2501221 0.5626221
vt 0.3123779 0.5626221
vt 0.3123779 0.6248779
vt 0.2501221 0.6248779
vt 0.3126221 0.5001221
vt 0.3748779 0.5001221
vt 0.3748779 0.5623779
vt 0.3126221 0.5623779

# Normal
vn 0 0 -1

# Groups (Count = 2)
g mesh_[00]_[00]
f  1/1/1  2/2/1  3/3/1  4/4/1 
f  2/1/1  5/2/1  6/3/1  3/4/1 
f  5/1/1  7/2/1  8/3/1  6/4/1 
f  7/5/1  9/6/1  10/7/1  8/8/1 
f  9/1/1  11/2/1  12/3/1  10/4/1 
f  11/1/1  13/2/1  14/3/1  12/4/1 
f  13/1/1  15/2/1  16/3/1  14/4/1 
f  15/1/1  17/2/1  18/3/1  16/4/1 
f  19/1/1  20/2/1  2/3/1  1/4/1 
f  20/1/1  21/2/1  5/3/1  2/4/1 
f  21/1/1  22/2/1  7/3/1  5/4/1 
f  22/5/1  23/6/1  9/7/1  7/8/1 
f  23/1/1  24/2/1  11/3/1  9/4/1 
f  24/1/1  25/2/1  13/3/1  11/4/1 
f  25/1/1  26/2/1  15/3/1  13/4/1 
f  26/1/1  27/2/1  17/3/1  15/4/1 
f  28/1/1  29/2/1  20/3/1  19/4/1 
f  29/1/1  30/2/1  21/3/1  20/4/1 
f  30/1/1  31/2/1  22/3/1  21/4/1 
f  31/5/1  32/6/1  23/7/1  22/8/1 
f  32/1/1  33/2/1  24/3/1  23/4/1 
f  33/1/1  34/2/1  25/3/1  24/4/1 
f  34/1/1  35/2/1  26/3/1  25/4/1 
f  35/1/1  36/2/1  27/3/1  26/4/1 
f  37/1/1  38/2/1  29/3/1  28/4/1 
f  38/1/1  39/2/1  30/3/1  29/4/1 
f  39/1/1  40/2/1  31/3/1  30/4/1 
f  40/5/1  41/6/1  32/7/1  31/8/1 
f  41/1/1  42/2/1  33/3/1  32/4/1 
f  42/1/1  43/2/1  34/3/1  33/4/1 
f  43/1/1  44/2/1  35/3/1  34/4/1 
f  44/1/1  45/2/1  36/3/1  35/4/1 
f  46/5/1  47/6/1  38/7/1  37/8/1 
f  47/5/1  48/6/1  39/7/1  38/8/1 
f  48/5/1  49/6/1  40/7/1  39/8/1 
f  49/5/1  50/6/1  41/7/1  40/8/1 
f  50/5/1  51/6/1  42/7/1  41/8/1 
f  51/5/1  52/6/1  43/7/1  42/8/1 
f  52/5/1  53/6/1  44/7/1  43/8/1 
f  53/5/1  54/6/1  45/7/1  44/8/1 
f  55/5/1  56/6/1  47/7/1  46/8/1 
f  56/5/1  57/6/1  48/7/1  47/8/1 
f  57/5/1  58/6/1  49/7/1  48/8/1 
f  58/5/1  59/6/1  50/7/1  49/8/1 
f  59/5/1  60/6/1  51/7/1  50/8/1 
f  60/5/1  61/6/1  52/7/1  51/8/1 
f  61/5/1  62/6/1  53/7/1  52/8/1 
f  62/5/1  63/6/1  54/7/1  53/8/1 
f  64/5/1  65/6/1  56/7/1  55/8/1 
f  65/5/1  66/6/1  57/7/1  56/8/1 
f  66/5/1  67/6/1  58/7/1  57/8/1 
f  67/5/1  68/6/1  59/7/1  58/8/1 
f  68/5/1  69/6/1  60/7/1  59/8/1 
f  69/5/1  70/6/1  61/7/1  60/8/1 
f  70/5/1  71/6/1  62/7/1  61/8/1 
f  71/5/1  72/6/1  63/7/1  62/8/1 
g mesh_[01]_[01]
f  56/9/1  57/10/1  48/11/1  47/12/1 
f  59/13/1  60/14/1  51/15/1  50/16/1 
f  61/9/1  62/10/1  53/11/1  52/12/1 
f  65/17/1  66/18/1  57/19/1  56/20/1 
f  70/17/1  71/18/1  62/19/1  61/20/1 
