# Wavefront OBJ file automatically generated by Tiled2Unity

# Vertices (Count = 121)
v 0 -32 0
v -32 -32 0
v -32 0 0
v 0 0 0
v -64 -32 0
v -64 0 0
v -96 -32 0
v -96 0 0
v -128 -32 0
v -128 0 0
v -160 -32 0
v -160 0 0
v -192 -32 0
v -192 0 0
v -224 -32 0
v -224 0 0
v -256 -32 0
v -256 0 0
v -288 -32 0
v -288 0 0
v -320 -32 0
v -320 0 0
v 0 -64 0
v -32 -64 0
v -64 -64 0
v -96 -64 0
v -128 -64 0
v -160 -64 0
v -192 -64 0
v -224 -64 0
v -256 -64 0
v -288 -64 0
v -320 -64 0
v 0 -96 0
v -32 -96 0
v -64 -96 0
v -96 -96 0
v -128 -96 0
v -160 -96 0
v -192 -96 0
v -224 -96 0
v -256 -96 0
v -288 -96 0
v -320 -96 0
v 0 -128 0
v -32 -128 0
v -64 -128 0
v -96 -128 0
v -128 -128 0
v -160 -128 0
v -192 -128 0
v -224 -128 0
v -256 -128 0
v -288 -128 0
v -320 -128 0
v 0 -160 0
v -32 -160 0
v -64 -160 0
v -96 -160 0
v -128 -160 0
v -160 -160 0
v -192 -160 0
v -224 -160 0
v -256 -160 0
v -288 -160 0
v -320 -160 0
v 0 -192 0
v -32 -192 0
v -64 -192 0
v -96 -192 0
v -128 -192 0
v -160 -192 0
v -192 -192 0
v -224 -192 0
v -256 -192 0
v -288 -192 0
v -320 -192 0
v 0 -224 0
v -32 -224 0
v -64 -224 0
v -96 -224 0
v -128 -224 0
v -160 -224 0
v -192 -224 0
v -224 -224 0
v -256 -224 0
v -288 -224 0
v -320 -224 0
v 0 -256 0
v -32 -256 0
v -64 -256 0
v -96 -256 0
v -128 -256 0
v -160 -256 0
v -192 -256 0
v -224 -256 0
v -256 -256 0
v -288 -256 0
v -320 -256 0
v 0 -288 0
v -32 -288 0
v -64 -288 0
v -96 -288 0
v -128 -288 0
v -160 -288 0
v -192 -288 0
v -224 -288 0
v -256 -288 0
v -288 -288 0
v -320 -288 0
v 0 -320 0
v -32 -320 0
v -64 -320 0
v -96 -320 0
v -128 -320 0
v -160 -320 0
v -192 -320 0
v -224 -320 0
v -256 -320 0
v -288 -320 0
v -320 -320 0

# Texture Coorindates (Count = 28)
vt 0.4376221 0.4167887
vt 0.4998779 0.4167887
vt 0.4998779 0.4998779
vt 0.4376221 0.4998779
vt 0.6251221 0.9167888
vt 0.6873779 0.9167888
vt 0.6873779 0.9998779
vt 0.6251221 0.9998779
vt 0.3126221 0.4167887
vt 0.3748779 0.4167887
vt 0.3748779 0.4998779
vt 0.3126221 0.4998779
vt 0.0001220703 0.5001221
vt 0.06237793 0.5001221
vt 0.06237793 0.5623779
vt 0.0001220703 0.5623779
vt 0.06262207 0.5001221
vt 0.1248779 0.5001221
vt 0.1248779 0.5623779
vt 0.06262207 0.5623779
vt 0.0001220703 0.4376221
vt 0.06237793 0.4376221
vt 0.06237793 0.4998779
vt 0.0001220703 0.4998779
vt 0.06262207 0.4376221
vt 0.1248779 0.4376221
vt 0.1248779 0.4998779
vt 0.06262207 0.4998779

# Normal
vn 0 0 -1

# Groups (Count = 2)
g mesh_[00]_[00]
f  1/1/1  2/2/1  3/3/1  4/4/1 
f  2/1/1  5/2/1  6/3/1  3/4/1 
f  5/1/1  7/2/1  8/3/1  6/4/1 
f  7/1/1  9/2/1  10/3/1  8/4/1 
f  9/1/1  11/2/1  12/3/1  10/4/1 
f  11/1/1  13/2/1  14/3/1  12/4/1 
f  13/1/1  15/2/1  16/3/1  14/4/1 
f  15/1/1  17/2/1  18/3/1  16/4/1 
f  17/1/1  19/2/1  20/3/1  18/4/1 
f  19/1/1  21/2/1  22/3/1  20/4/1 
f  23/1/1  24/2/1  2/3/1  1/4/1 
f  24/5/1  25/6/1  5/7/1  2/8/1 
f  25/1/1  26/2/1  7/3/1  5/4/1 
f  26/1/1  27/2/1  9/3/1  7/4/1 
f  27/1/1  28/2/1  11/3/1  9/4/1 
f  28/1/1  29/2/1  13/3/1  11/4/1 
f  29/1/1  30/2/1  15/3/1  13/4/1 
f  30/9/1  31/10/1  17/11/1  15/12/1 
f  31/1/1  32/2/1  19/3/1  17/4/1 
f  32/1/1  33/2/1  21/3/1  19/4/1 
f  34/1/1  35/2/1  24/3/1  23/4/1 
f  35/1/1  36/2/1  25/3/1  24/4/1 
f  36/1/1  37/2/1  26/3/1  25/4/1 
f  37/1/1  38/2/1  27/3/1  26/4/1 
f  38/1/1  39/2/1  28/3/1  27/4/1 
f  39/1/1  40/2/1  29/3/1  28/4/1 
f  40/1/1  41/2/1  30/3/1  29/4/1 
f  41/1/1  42/2/1  31/3/1  30/4/1 
f  42/1/1  43/2/1  32/3/1  31/4/1 
f  43/1/1  44/2/1  33/3/1  32/4/1 
f  45/1/1  46/2/1  35/3/1  34/4/1 
f  46/1/1  47/2/1  36/3/1  35/4/1 
f  47/1/1  48/2/1  37/3/1  36/4/1 
f  48/1/1  49/2/1  38/3/1  37/4/1 
f  49/1/1  50/2/1  39/3/1  38/4/1 
f  50/1/1  51/2/1  40/3/1  39/4/1 
f  51/1/1  52/2/1  41/3/1  40/4/1 
f  52/1/1  53/2/1  42/3/1  41/4/1 
f  53/1/1  54/2/1  43/3/1  42/4/1 
f  54/1/1  55/2/1  44/3/1  43/4/1 
f  56/1/1  57/2/1  46/3/1  45/4/1 
f  57/1/1  58/2/1  47/3/1  46/4/1 
f  58/1/1  59/2/1  48/3/1  47/4/1 
f  59/1/1  60/2/1  49/3/1  48/4/1 
f  60/1/1  61/2/1  50/3/1  49/4/1 
f  61/1/1  62/2/1  51/3/1  50/4/1 
f  62/1/1  63/2/1  52/3/1  51/4/1 
f  63/1/1  64/2/1  53/3/1  52/4/1 
f  64/1/1  65/2/1  54/3/1  53/4/1 
f  65/1/1  66/2/1  55/3/1  54/4/1 
f  67/1/1  68/2/1  57/3/1  56/4/1 
f  68/1/1  69/2/1  58/3/1  57/4/1 
f  69/1/1  70/2/1  59/3/1  58/4/1 
f  70/1/1  71/2/1  60/3/1  59/4/1 
f  71/1/1  72/2/1  61/3/1  60/4/1 
f  72/1/1  73/2/1  62/3/1  61/4/1 
f  73/1/1  74/2/1  63/3/1  62/4/1 
f  74/1/1  75/2/1  64/3/1  63/4/1 
f  75/1/1  76/2/1  65/3/1  64/4/1 
f  76/1/1  77/2/1  66/3/1  65/4/1 
f  78/1/1  79/2/1  68/3/1  67/4/1 
f  79/1/1  80/2/1  69/3/1  68/4/1 
f  80/1/1  81/2/1  70/3/1  69/4/1 
f  81/1/1  82/2/1  71/3/1  70/4/1 
f  82/1/1  83/2/1  72/3/1  71/4/1 
f  83/1/1  84/2/1  73/3/1  72/4/1 
f  84/1/1  85/2/1  74/3/1  73/4/1 
f  85/1/1  86/2/1  75/3/1  74/4/1 
f  86/1/1  87/2/1  76/3/1  75/4/1 
f  87/1/1  88/2/1  77/3/1  76/4/1 
f  89/1/1  90/2/1  79/3/1  78/4/1 
f  90/1/1  91/2/1  80/3/1  79/4/1 
f  91/1/1  92/2/1  81/3/1  80/4/1 
f  92/1/1  93/2/1  82/3/1  81/4/1 
f  93/1/1  94/2/1  83/3/1  82/4/1 
f  94/1/1  95/2/1  84/3/1  83/4/1 
f  95/1/1  96/2/1  85/3/1  84/4/1 
f  96/1/1  97/2/1  86/3/1  85/4/1 
f  97/1/1  98/2/1  87/3/1  86/4/1 
f  98/1/1  99/2/1  88/3/1  87/4/1 
f  100/1/1  101/2/1  90/3/1  89/4/1 
f  101/1/1  102/2/1  91/3/1  90/4/1 
f  102/1/1  103/2/1  92/3/1  91/4/1 
f  103/1/1  104/2/1  93/3/1  92/4/1 
f  104/1/1  105/2/1  94/3/1  93/4/1 
f  105/1/1  106/2/1  95/3/1  94/4/1 
f  106/1/1  107/2/1  96/3/1  95/4/1 
f  107/1/1  108/2/1  97/3/1  96/4/1 
f  108/1/1  109/2/1  98/3/1  97/4/1 
f  109/1/1  110/2/1  99/3/1  98/4/1 
f  111/1/1  112/2/1  101/3/1  100/4/1 
f  112/1/1  113/2/1  102/3/1  101/4/1 
f  113/1/1  114/2/1  103/3/1  102/4/1 
f  114/1/1  115/2/1  104/3/1  103/4/1 
f  115/1/1  116/2/1  105/3/1  104/4/1 
f  116/1/1  117/2/1  106/3/1  105/4/1 
f  117/1/1  118/2/1  107/3/1  106/4/1 
f  118/1/1  119/2/1  108/3/1  107/4/1 
f  119/1/1  120/2/1  109/3/1  108/4/1 
f  120/1/1  121/2/1  110/3/1  109/4/1 
g mesh_[01]_[01]
f  81/13/1  82/14/1  71/15/1  70/16/1 
f  82/17/1  83/18/1  72/19/1  71/20/1 
f  92/21/1  93/22/1  82/23/1  81/24/1 
f  93/25/1  94/26/1  83/27/1  82/28/1 
